<svg width="32" height="26" viewBox="0 0 32 26" fill="none" xmlns="http://www.w3.org/2000/svg">
<path d="M23.7075 6.12188C23.7075 5.67089 23.5284 5.23837 23.2095 4.91948C22.8906 4.60058 22.4581 4.42142 22.0071 4.42142H18.6061L16.0555 1.02051H9.25362L6.70294 4.42142H3.30202C2.85103 4.42142 2.41851 4.60058 2.09962 4.91948C1.78072 5.23837 1.60156 5.67089 1.60156 6.12188V16.3246C1.60156 16.7756 1.78072 17.2081 2.09962 17.527C2.41851 17.8459 2.85103 18.0251 3.30202 18.0251H22.0071C22.4581 18.0251 22.8906 17.8459 23.2095 17.527C23.5284 17.2081 23.7075 16.7756 23.7075 16.3246V6.12188Z" fill="#35393C" stroke="#35393C" stroke-width="1.70046" stroke-linecap="round" stroke-linejoin="round"/>
<path d="M12.6542 14.1989C14.7672 14.1989 16.4802 12.486 16.4802 10.3729C16.4802 8.25985 14.7672 6.54688 12.6542 6.54688C10.5411 6.54688 8.82812 8.25985 8.82812 10.3729C8.82812 12.486 10.5411 14.1989 12.6542 14.1989Z" stroke="white" stroke-width="0.969072" stroke-linecap="round" stroke-linejoin="round"/>
<circle cx="25.0956" cy="16.0849" r="6.0567" fill="#35393C" stroke="white" stroke-width="0.969072"/>
<path d="M24.8601 18.2543V16.1757H22.7601V15.4295H24.8601V13.3508H25.8195V15.4295H27.9195V16.1757H25.8195V18.2543H24.8601Z" fill="white"/>
</svg>
