<svg width="20" height="20" viewBox="0 0 20 20" fill="none" xmlns="http://www.w3.org/2000/svg">
<g clip-path="url(#clip0_1576_14526)">
<path d="M9.4703 13.4987C12.8712 13.4987 15.6281 10.7418 15.6281 7.3409C15.6281 3.94005 12.8712 1.18311 9.4703 1.18311C6.06944 1.18311 3.3125 3.94005 3.3125 7.3409C3.3125 10.7418 6.06944 13.4987 9.4703 13.4987Z" stroke="#35393C" stroke-width="1.3684" stroke-linecap="round" stroke-linejoin="round"/>
<path d="M9.47117 10.0777C10.9827 10.0777 12.208 8.85242 12.208 7.34092C12.208 5.82943 10.9827 4.60413 9.47117 4.60413C7.95968 4.60413 6.73438 5.82943 6.73438 7.34092C6.73438 8.85242 7.95968 10.0777 9.47117 10.0777Z" stroke="#35393C" stroke-width="1.3684" stroke-linecap="round" stroke-linejoin="round"/>
<path d="M8.27858 13.3897L7.07439 18.4527C7.05056 18.549 7.0065 18.639 6.94515 18.7169C6.88381 18.7947 6.80658 18.8586 6.7186 18.9043C6.62575 18.9446 6.52562 18.9654 6.4244 18.9654C6.32318 18.9654 6.22304 18.9446 6.13019 18.9043L1.58711 16.9201C1.49181 16.8751 1.40796 16.809 1.34185 16.7269C1.27573 16.6448 1.22907 16.5488 1.20537 16.4461C1.18167 16.3434 1.18154 16.2367 1.205 16.1339C1.22845 16.0312 1.27488 15.935 1.34079 15.8528L4.85758 11.4465" stroke="#35393C" stroke-width="1.3684" stroke-linecap="round" stroke-linejoin="round"/>
<path d="M11.0156 13.3213L12.2472 18.4528C12.2717 18.5506 12.3175 18.6418 12.3814 18.7199C12.4452 18.798 12.5256 18.8609 12.6167 18.9043C12.707 18.9451 12.8049 18.9662 12.904 18.9662C13.0031 18.9662 13.1011 18.9451 13.1914 18.9043L17.7071 16.9201C17.8038 16.8756 17.8888 16.8092 17.9553 16.726C18.0219 16.6429 18.0681 16.5453 18.0902 16.4412C18.1162 16.3393 18.1173 16.2327 18.0935 16.1303C18.0697 16.0279 18.0216 15.9328 17.9534 15.8528L14.2861 11.1866" stroke="#35393C" stroke-width="1.3684" stroke-linecap="round" stroke-linejoin="round"/>
</g>
<defs>
<clipPath id="clip0_1576_14526">
<path d="M0.0664062 8C0.0664062 3.85786 3.42427 0.5 7.56641 0.5H11.724C15.8661 0.5 19.224 3.85786 19.224 8V19.6576H0.0664062V8Z" fill="white"/>
</clipPath>
</defs>
</svg>
