<svg width="40" height="41" viewBox="0 0 40 41" fill="none" xmlns="http://www.w3.org/2000/svg">
<path d="M37.9695 26.8973C37.9695 33.2478 32.8334 38.384 26.4829 38.384L28.2059 35.5123" stroke="#4A4D70" stroke-width="2" stroke-linecap="round" stroke-linejoin="round"/>
<path d="M1.86865 13.7698C1.86865 7.4193 7.00482 2.28314 13.3553 2.28314L11.6323 5.1548" stroke="#4A4D70" stroke-width="2" stroke-linecap="round" stroke-linejoin="round"/>
<path d="M11.0894 22.1387H15.7004C16.7178 22.1387 17.5547 23.0577 17.5547 23.993C17.5547 25.0104 16.7342 25.8473 15.7004 25.8473H11.0894V22.1387Z" stroke="#4A4D70" stroke-width="2" stroke-miterlimit="10" stroke-linecap="round" stroke-linejoin="round"/>
<path d="M11.0894 25.847H16.3732C17.5383 25.847 18.49 26.6675 18.49 27.7013C18.49 28.7186 17.5383 29.5555 16.3732 29.5555H11.0894V25.847Z" stroke="#4A4D70" stroke-width="2" stroke-miterlimit="10" stroke-linecap="round" stroke-linejoin="round"/>
<path d="M14.043 29.5391V31.377" stroke="#4A4D70" stroke-width="2" stroke-miterlimit="10" stroke-linecap="round" stroke-linejoin="round"/>
<path d="M14.043 20.3007V22.1386" stroke="#4A4D70" stroke-width="2" stroke-miterlimit="10" stroke-linecap="round" stroke-linejoin="round"/>
<path d="M24.5945 25.8471C24.5945 31.4428 20.0655 35.9717 14.4699 35.9717C8.87423 35.9717 4.34521 31.4428 4.34521 25.8471C4.34521 20.2515 8.87423 15.7224 14.4699 15.7224C14.7324 15.7224 14.9786 15.7389 15.2575 15.7553C20.2296 16.1327 24.2007 20.1038 24.5781 25.0758C24.5781 25.322 24.5945 25.5682 24.5945 25.8471Z" stroke="#4A4D70" stroke-width="2" stroke-miterlimit="10" stroke-linecap="round" stroke-linejoin="round"/>
<path d="M35.5061 14.9183C35.5061 20.5139 30.9771 25.043 25.3815 25.043H24.5774C24.2 20.071 20.2289 16.0998 15.2568 15.7224V14.9183C15.2568 9.32269 19.7859 4.7937 25.3815 4.7937C30.9771 4.7937 35.5061 9.32269 35.5061 14.9183Z" stroke="#4A4D70" stroke-width="2" stroke-miterlimit="10" stroke-linecap="round" stroke-linejoin="round"/>
</svg>
