<svg width="52" height="52" viewBox="0 0 52 52" fill="none" xmlns="http://www.w3.org/2000/svg">
<rect x="1.5" y="1.5" width="49" height="49" rx="8.5" stroke="#F0F0F2" stroke-width="3"/>
<path d="M33.4398 37.2769L33.786 33.4097C33.8606 32.5767 33.6335 31.7447 33.1468 31.0693C32.6603 30.3938 31.9478 29.9212 31.1424 29.7397L26.81 28.7637V23.0845C26.81 22.5141 26.5865 21.9672 26.1888 21.5639C25.791 21.1606 25.2515 20.9341 24.689 20.9341C24.1266 20.9341 23.587 21.1606 23.1893 21.5639C22.7915 21.9672 22.568 22.5141 22.568 23.0845V33.8363L20.4856 32.2525C20.0985 31.9557 19.6136 31.8214 19.1315 31.8773C18.6494 31.9332 18.2069 32.175 17.8959 32.5528C17.585 32.9304 17.4292 33.415 17.4611 33.906C17.493 34.3968 17.71 34.8565 18.0671 35.1896L20.2865 37.2769" stroke="#35393C" stroke-width="2" stroke-linecap="round" stroke-linejoin="round"/>
<path d="M25.6074 12V16.7626" stroke="#35393C" stroke-width="2" stroke-linecap="round"/>
<path d="M18.1992 14.646L21.5669 18.0137" stroke="#35393C" stroke-width="2" stroke-linecap="round"/>
<path d="M29.3105 18.0137L32.6782 14.646" stroke="#35393C" stroke-width="2" stroke-linecap="round"/>
</svg>
