<svg width="14" height="3" viewBox="0 0 14 3" fill="none" xmlns="http://www.w3.org/2000/svg">
<path d="M1.95902 2.82696C1.57502 2.82696 1.25702 2.70096 1.00502 2.44896C0.76502 2.18496 0.64502 1.86696 0.64502 1.49496C0.64502 1.11096 0.76502 0.792964 1.00502 0.540964C1.25702 0.288964 1.57502 0.162964 1.95902 0.162964C2.34302 0.162964 2.65502 0.288964 2.89502 0.540964C3.14702 0.792964 3.27302 1.11096 3.27302 1.49496C3.27302 1.86696 3.14702 2.18496 2.89502 2.44896C2.65502 2.70096 2.34302 2.82696 1.95902 2.82696Z" fill="#35393C"/>
<path d="M6.99972 2.82696C6.61572 2.82696 6.29772 2.70096 6.04572 2.44896C5.80572 2.18496 5.68572 1.86696 5.68572 1.49496C5.68572 1.11096 5.80572 0.792964 6.04572 0.540964C6.29772 0.288964 6.61572 0.162964 6.99972 0.162964C7.38372 0.162964 7.69572 0.288964 7.93572 0.540964C8.18772 0.792964 8.31372 1.11096 8.31372 1.49496C8.31372 1.86696 8.18772 2.18496 7.93572 2.44896C7.69572 2.70096 7.38372 2.82696 6.99972 2.82696Z" fill="#35393C"/>
<path d="M12.0404 2.82696C11.6564 2.82696 11.3384 2.70096 11.0864 2.44896C10.8464 2.18496 10.7264 1.86696 10.7264 1.49496C10.7264 1.11096 10.8464 0.792964 11.0864 0.540964C11.3384 0.288964 11.6564 0.162964 12.0404 0.162964C12.4244 0.162964 12.7364 0.288964 12.9764 0.540964C13.2284 0.792964 13.3544 1.11096 13.3544 1.49496C13.3544 1.86696 13.2284 2.18496 12.9764 2.44896C12.7364 2.70096 12.4244 2.82696 12.0404 2.82696Z" fill="#35393C"/>
</svg>
