<svg width="30" height="30" viewBox="0 0 30 30" fill="none" xmlns="http://www.w3.org/2000/svg">
<path fill-rule="evenodd" clip-rule="evenodd" d="M20.4938 4.02087C19.0505 4.02087 17.6663 4.59422 16.6457 5.61479L10.2276 12.0329C7.27989 14.9806 5.18871 18.6741 4.17765 22.7183L3.86753 23.9588C3.54588 25.2454 4.71127 26.4108 5.99785 26.0891L7.23834 25.779C11.2826 24.7679 14.976 22.6768 17.9237 19.729L24.3419 13.3109C25.3624 12.2903 25.9358 10.9061 25.9358 9.46285C25.9358 6.45733 23.4993 4.02087 20.4938 4.02087ZM18.6493 11.3073C19.6318 12.2898 20.7707 12.7083 21.6155 12.5612L22.6039 11.5729C23.1635 11.0133 23.4779 10.2543 23.4779 9.46285C23.4779 7.81479 22.1419 6.47878 20.4938 6.47878C19.7024 6.47878 18.9434 6.79317 18.3837 7.3528L17.3954 8.34112C17.2484 9.18593 17.6669 10.3249 18.6493 11.3073Z" fill="#35393C"/>
</svg>
