<svg width="31" height="31" viewBox="0 0 31 31" fill="none" xmlns="http://www.w3.org/2000/svg">
<g clip-path="url(#clip0_235_1719)">
<path d="M16.6071 19.9285L9.96423 21.1242L11.0714 14.3928L23.7592 1.74922C23.9651 1.54168 24.21 1.37695 24.4798 1.26453C24.7496 1.15212 25.0391 1.09424 25.3314 1.09424C25.6237 1.09424 25.9131 1.15212 26.1829 1.26453C26.4528 1.37695 26.6977 1.54168 26.9035 1.74922L29.2507 4.09636C29.4582 4.30221 29.6229 4.54711 29.7353 4.81694C29.8478 5.08677 29.9056 5.37619 29.9056 5.66851C29.9056 5.96082 29.8478 6.25024 29.7353 6.52007C29.6229 6.7899 29.4582 7.0348 29.2507 7.24065L16.6071 19.9285Z" stroke="#1E224D" stroke-width="2.20576" stroke-linecap="round" stroke-linejoin="round"/>
<path d="M26.5715 21.0356V27.6785C26.5715 28.2657 26.3382 28.8289 25.9229 29.2442C25.5077 29.6595 24.9444 29.8927 24.3572 29.8927H3.32146C2.7342 29.8927 2.17099 29.6595 1.75573 29.2442C1.34047 28.8289 1.10718 28.2657 1.10718 27.6785V6.64275C1.10718 6.05549 1.34047 5.49227 1.75573 5.07702C2.17099 4.66176 2.7342 4.42847 3.32146 4.42847H9.96432" stroke="#1E224D" stroke-width="2.20576" stroke-linecap="round" stroke-linejoin="round"/>
</g>
<defs>
<clipPath id="clip0_235_1719">
<rect width="31" height="31" fill="white"/>
</clipPath>
</defs>
</svg>
