<svg width="30" height="30" viewBox="0 0 30 30" fill="none" xmlns="http://www.w3.org/2000/svg">
<g clip-path="url(#clip0_3769_14178)">
<path d="M19.8689 15.3162C19.8689 16.5234 19.3894 17.6811 18.5358 18.5347C17.6822 19.3883 16.5245 19.8678 15.3173 19.8678C14.1101 19.8678 12.9524 19.3883 12.0988 18.5347C11.2452 17.6811 10.7656 16.5234 10.7656 15.3162C10.7656 14.109 11.2452 12.9513 12.0988 12.0977C12.9524 11.2441 14.1101 10.7645 15.3173 10.7645C16.5245 10.7645 17.6822 11.2441 18.5358 12.0977C19.3894 12.9513 19.8689 14.109 19.8689 15.3162Z" fill="#35393C"/>
<path d="M0.749023 15.3158C0.749023 15.3158 6.21101 5.30212 15.3143 5.30212C24.4176 5.30212 29.8796 15.3158 29.8796 15.3158C29.8796 15.3158 24.4176 25.3294 15.3143 25.3294C6.21101 25.3294 0.749023 15.3158 0.749023 15.3158ZM15.3143 21.6881C17.0044 21.6881 18.6252 21.0167 19.8202 19.8217C21.0153 18.6266 21.6866 17.0058 21.6866 15.3158C21.6866 13.6257 21.0153 12.0049 19.8202 10.8099C18.6252 9.61482 17.0044 8.94345 15.3143 8.94345C13.6243 8.94345 12.0035 9.61482 10.8084 10.8099C9.61337 12.0049 8.94201 13.6257 8.94201 15.3158C8.94201 17.0058 9.61337 18.6266 10.8084 19.8217C12.0035 21.0167 13.6243 21.6881 15.3143 21.6881Z" fill="#35393C"/>
</g>
<defs>
<clipPath id="clip0_3769_14178">
<rect width="29.1306" height="29.1306" fill="white" transform="translate(0.750977 0.75061)"/>
</clipPath>
</defs>
</svg>
