<svg width="32" height="32" viewBox="0 0 32 32" fill="none" xmlns="http://www.w3.org/2000/svg">
<g clip-path="url(#clip0_2832_2499)">
<g filter="url(#filter0_i_2832_2499)">
<path fill-rule="evenodd" clip-rule="evenodd" d="M16.2109 31.8564C26.1309 31.8564 31.7109 26.2764 31.7109 16.3564C31.7109 6.43645 26.1309 0.856445 16.2109 0.856445C6.29094 0.856445 0.710938 6.43645 0.710938 16.3564C0.710938 26.2764 6.29094 31.8564 16.2109 31.8564ZM24.2634 26.3845C23.6996 25.334 22.9315 24.3965 21.9951 23.6313C20.3627 22.297 18.3193 21.5681 16.2111 21.5681C14.1029 21.5681 12.0595 22.297 10.4272 23.6313C9.49078 24.3965 8.72269 25.334 8.15875 26.3845C10.0019 27.7093 12.6231 28.535 16.2112 28.535C19.7992 28.535 22.4203 27.7093 24.2634 26.3845ZM21.4258 12.5231C21.4258 15.8615 19.5479 17.7394 16.2094 17.7394C12.871 17.7394 10.9931 15.8615 10.9931 12.5231C10.9931 9.1846 12.871 7.3067 16.2094 7.3067C19.5479 7.3067 21.4258 9.1846 21.4258 12.5231Z" fill="#35393C"/>
</g>
</g>
<defs>
<filter id="filter0_i_2832_2499" x="0.710938" y="0.856445" width="31" height="35" filterUnits="userSpaceOnUse" color-interpolation-filters="sRGB">
<feFlood flood-opacity="0" result="BackgroundImageFix"/>
<feBlend mode="normal" in="SourceGraphic" in2="BackgroundImageFix" result="shape"/>
<feColorMatrix in="SourceAlpha" type="matrix" values="0 0 0 0 0 0 0 0 0 0 0 0 0 0 0 0 0 0 127 0" result="hardAlpha"/>
<feOffset dy="4"/>
<feGaussianBlur stdDeviation="2"/>
<feComposite in2="hardAlpha" operator="arithmetic" k2="-1" k3="1"/>
<feColorMatrix type="matrix" values="0 0 0 0 0 0 0 0 0 0 0 0 0 0 0 0 0 0 0.25 0"/>
<feBlend mode="normal" in2="shape" result="effect1_innerShadow_2832_2499"/>
</filter>
<clipPath id="clip0_2832_2499">
<rect width="31" height="31" fill="white" transform="translate(0.710938 0.856445)"/>
</clipPath>
</defs>
</svg>
