<svg width="30" height="31" viewBox="0 0 30 31" fill="none" xmlns="http://www.w3.org/2000/svg">
<g clip-path="url(#clip0_1469_698)">
<path d="M1.07141 15.1929C1.07141 17.9831 1.88831 20.7107 3.4188 23.0307C4.94929 25.3507 7.12463 27.1589 9.66975 28.2267C12.2149 29.2945 15.0154 29.5738 17.7173 29.0295C20.4192 28.4851 22.901 27.1415 24.849 25.1685C26.7969 23.1955 28.1235 20.6818 28.6609 17.9452C29.1984 15.2085 28.9225 12.372 27.8683 9.79411C26.8141 7.21627 25.0288 5.01296 22.7383 3.46279C20.4477 1.91262 17.7548 1.08521 15 1.08521C11.0099 1.08074 7.172 2.63565 4.2857 5.42604" stroke="#4A4D70" stroke-width="2" stroke-linecap="round" stroke-linejoin="round"/>
<path d="M5.35707 1.08521L4.28564 5.42603L8.57136 6.51123" stroke="#4A4D70" stroke-width="2" stroke-linecap="round" stroke-linejoin="round"/>
<path d="M15 7.59644V16.2781L9.42859 19.0996" stroke="#4A4D70" stroke-width="2" stroke-linecap="round" stroke-linejoin="round"/>
</g>
<defs>
<clipPath id="clip0_1469_698">
<rect width="30" height="30.3858" fill="white"/>
</clipPath>
</defs>
</svg>
