<svg width="52" height="52" viewBox="0 0 52 52" fill="none" xmlns="http://www.w3.org/2000/svg">
<rect x="1.5" y="1.5" width="49" height="49" rx="8.5" stroke="#F0F0F2" stroke-width="3"/>
<path d="M39.444 24.186C39.8019 24.5825 40 25.0977 40 25.6318C40 26.1659 39.8019 26.6811 39.444 27.0776C37.1782 29.5161 32.0207 34.2636 26 34.2636C19.9793 34.2636 14.8218 29.5161 12.556 27.0776C12.1981 26.6811 12 26.1659 12 25.6318C12 25.0977 12.1981 24.5825 12.556 24.186C14.8218 21.7475 19.9793 17 26 17C32.0207 17 37.1782 21.7475 39.444 24.186Z" stroke="#35393C" stroke-width="2" stroke-linecap="round" stroke-linejoin="round"/>
<path d="M26.0014 29.9477C28.3851 29.9477 30.3173 28.0154 30.3173 25.6318C30.3173 23.2482 28.3851 21.3159 26.0014 21.3159C23.6178 21.3159 21.6855 23.2482 21.6855 25.6318C21.6855 28.0154 23.6178 29.9477 26.0014 29.9477Z" stroke="#35393C" stroke-width="2" stroke-linecap="round" stroke-linejoin="round"/>
</svg>
