<svg width="32" height="32" viewBox="0 0 32 32" fill="none" xmlns="http://www.w3.org/2000/svg">
<g clip-path="url(#clip0_1812_2212)">
<path d="M28.7164 0H2.28956C1.02364 0 0 0.999412 0 2.23505V28.7709C0 30.0066 1.02364 31.012 2.28956 31.012H28.7164C29.9824 31.012 31.012 30.0066 31.012 28.777V2.23505C31.012 0.999412 29.9824 0 28.7164 0ZM9.20064 26.4269H4.59729V11.6235H9.20064V26.4269ZM6.89897 9.60647C5.42105 9.60647 4.22781 8.41323 4.22781 6.94137C4.22781 5.46951 5.42105 4.27627 6.89897 4.27627C8.37083 4.27627 9.56407 5.46951 9.56407 6.94137C9.56407 8.40717 8.37083 9.60647 6.89897 9.60647ZM26.4269 26.4269H21.8296V19.2311C21.8296 17.517 21.7993 15.3061 19.437 15.3061C17.0445 15.3061 16.6811 17.1778 16.6811 19.11V26.4269H12.0899V11.6235H16.4994V13.6465H16.5599C17.1717 12.4836 18.6739 11.254 20.9089 11.254C25.5668 11.254 26.4269 14.3188 26.4269 18.3044V26.4269Z" fill="#35393C"/>
</g>
<defs>
<clipPath id="clip0_1812_2212">
<rect width="31.012" height="31.012" fill="white"/>
</clipPath>
</defs>
</svg>
