<svg width="15" height="14" viewBox="0 0 15 14" fill="none" xmlns="http://www.w3.org/2000/svg">
<path d="M4.51085 6.51147L1.29622 9.622C1.20236 9.71293 1.12786 9.82111 1.07702 9.94031C1.02618 10.0595 1 10.1874 1 10.3165C1 10.4456 1.02618 10.5735 1.07702 10.6927C1.12786 10.8119 1.20236 10.92 1.29622 11.011L3.41928 13.0847C3.51238 13.1763 3.62314 13.2491 3.74517 13.2988C3.86721 13.3484 3.9981 13.374 4.1303 13.374C4.2625 13.374 4.3934 13.3484 4.51543 13.2988C4.63747 13.2491 4.74823 13.1763 4.84132 13.0847L8.02591 9.94479" stroke="#EEF8FF" stroke-width="0.914359" stroke-linecap="round" stroke-linejoin="round"/>
<path d="M10.519 7.50948L13.7035 4.39896C13.7974 4.30803 13.8719 4.19985 13.9228 4.08065C13.9736 3.96145 13.9998 3.8336 13.9998 3.70448C13.9998 3.57535 13.9736 3.4475 13.9228 3.3283C13.8719 3.20911 13.7974 3.10092 13.7035 3.00999L11.6105 0.936308C11.5174 0.844628 11.4067 0.771859 11.2846 0.722199C11.1626 0.67254 11.0317 0.646973 10.8995 0.646973C10.7673 0.646973 10.6364 0.67254 10.5144 0.722199C10.3923 0.771859 10.2816 0.844628 10.1885 0.936308L7.00391 4.07617" stroke="#EEF8FF" stroke-width="0.914359" stroke-linecap="round" stroke-linejoin="round"/>
<path d="M9.51797 5.05444L5.51221 8.96705" stroke="#EEF8FF" stroke-width="0.914359" stroke-linecap="round" stroke-linejoin="round"/>
</svg>
