<svg width="19" height="18" viewBox="0 0 19 18" fill="none" xmlns="http://www.w3.org/2000/svg">
<g clip-path="url(#clip0_1576_14541)">
<path d="M8.73438 8.89417H17.6294" stroke="#35393C" stroke-width="1.365" stroke-linecap="round" stroke-linejoin="round"/>
<path d="M15.0859 6.35261L17.6274 8.89404L15.0859 11.4355" stroke="#35393C" stroke-width="1.365" stroke-linecap="round" stroke-linejoin="round"/>
<path d="M15.3409 14.6001C14.1999 15.7894 12.7291 16.6101 11.1178 16.9568C9.50646 17.3034 7.82829 17.16 6.29912 16.5451C4.76995 15.9302 3.45972 14.8718 2.53695 13.5062C1.61419 12.1405 1.12109 10.53 1.12109 8.88185C1.12109 7.23367 1.61419 5.62318 2.53695 4.25753C3.45972 2.89188 4.76995 1.83353 6.29912 1.2186C7.82829 0.603676 9.50646 0.460303 11.1178 0.806923C12.7291 1.15354 14.1999 1.9743 15.3409 3.16363" stroke="#35393C" stroke-width="1.365" stroke-linecap="round" stroke-linejoin="round"/>
</g>
<defs>
<clipPath id="clip0_1576_14541">
<rect width="17.79" height="17.79" fill="white" transform="translate(0.472656)"/>
</clipPath>
</defs>
</svg>
