<svg width="22" height="22" viewBox="0 0 22 22" fill="none" xmlns="http://www.w3.org/2000/svg">
<path d="M8.24996 4.58332C8.00684 4.58332 7.77369 4.6799 7.60178 4.85181C7.42987 5.02372 7.33329 5.25687 7.33329 5.49999C7.33329 5.7431 7.42987 5.97626 7.60178 6.14817C7.77369 6.32008 8.00684 6.41665 8.24996 6.41665C8.49307 6.41665 8.72623 6.32008 8.89814 6.14817C9.07005 5.97626 9.16663 5.7431 9.16663 5.49999C9.16663 5.25687 9.07005 5.02372 8.89814 4.85181C8.72623 4.6799 8.49307 4.58332 8.24996 4.58332ZM5.65579 4.58332C5.84518 4.04658 6.19639 3.5818 6.66101 3.25305C7.12563 2.92429 7.68079 2.74774 8.24996 2.74774C8.81913 2.74774 9.37429 2.92429 9.83891 3.25305C10.3035 3.5818 10.6547 4.04658 10.8441 4.58332H17.4166C17.6597 4.58332 17.8929 4.6799 18.0648 4.85181C18.2367 5.02372 18.3333 5.25687 18.3333 5.49999C18.3333 5.7431 18.2367 5.97626 18.0648 6.14817C17.8929 6.32008 17.6597 6.41665 17.4166 6.41665H10.8441C10.6547 6.95339 10.3035 7.41817 9.83891 7.74693C9.37429 8.07569 8.81913 8.25223 8.24996 8.25223C7.68079 8.25223 7.12563 8.07569 6.66101 7.74693C6.19639 7.41817 5.84518 6.95339 5.65579 6.41665H4.58329C4.34018 6.41665 4.10702 6.32008 3.93511 6.14817C3.7632 5.97626 3.66663 5.7431 3.66663 5.49999C3.66663 5.25687 3.7632 5.02372 3.93511 4.85181C4.10702 4.6799 4.34018 4.58332 4.58329 4.58332H5.65579ZM13.75 10.0833C13.5068 10.0833 13.2737 10.1799 13.1018 10.3518C12.9299 10.5237 12.8333 10.7569 12.8333 11C12.8333 11.2431 12.9299 11.4763 13.1018 11.6482C13.2737 11.8201 13.5068 11.9167 13.75 11.9167C13.9931 11.9167 14.2262 11.8201 14.3981 11.6482C14.57 11.4763 14.6666 11.2431 14.6666 11C14.6666 10.7569 14.57 10.5237 14.3981 10.3518C14.2262 10.1799 13.9931 10.0833 13.75 10.0833ZM11.1558 10.0833C11.3452 9.54658 11.6964 9.0818 12.161 8.75304C12.6256 8.42429 13.1808 8.24774 13.75 8.24774C14.3191 8.24774 14.8743 8.42429 15.3389 8.75304C15.8035 9.0818 16.1547 9.54658 16.3441 10.0833H17.4166C17.6597 10.0833 17.8929 10.1799 18.0648 10.3518C18.2367 10.5237 18.3333 10.7569 18.3333 11C18.3333 11.2431 18.2367 11.4763 18.0648 11.6482C17.8929 11.8201 17.6597 11.9167 17.4166 11.9167H16.3441C16.1547 12.4534 15.8035 12.9182 15.3389 13.2469C14.8743 13.5757 14.3191 13.7522 13.75 13.7522C13.1808 13.7522 12.6256 13.5757 12.161 13.2469C11.6964 12.9182 11.3452 12.4534 11.1558 11.9167H4.58329C4.34018 11.9167 4.10702 11.8201 3.93511 11.6482C3.7632 11.4763 3.66663 11.2431 3.66663 11C3.66663 10.7569 3.7632 10.5237 3.93511 10.3518C4.10702 10.1799 4.34018 10.0833 4.58329 10.0833H11.1558ZM8.24996 15.5833C8.00684 15.5833 7.77369 15.6799 7.60178 15.8518C7.42987 16.0237 7.33329 16.2569 7.33329 16.5C7.33329 16.7431 7.42987 16.9763 7.60178 17.1482C7.77369 17.3201 8.00684 17.4167 8.24996 17.4167C8.49307 17.4167 8.72623 17.3201 8.89814 17.1482C9.07005 16.9763 9.16663 16.7431 9.16663 16.5C9.16663 16.2569 9.07005 16.0237 8.89814 15.8518C8.72623 15.6799 8.49307 15.5833 8.24996 15.5833ZM5.65579 15.5833C5.84518 15.0466 6.19639 14.5818 6.66101 14.253C7.12563 13.9243 7.68079 13.7477 8.24996 13.7477C8.81913 13.7477 9.37429 13.9243 9.83891 14.253C10.3035 14.5818 10.6547 15.0466 10.8441 15.5833H17.4166C17.6597 15.5833 17.8929 15.6799 18.0648 15.8518C18.2367 16.0237 18.3333 16.2569 18.3333 16.5C18.3333 16.7431 18.2367 16.9763 18.0648 17.1482C17.8929 17.3201 17.6597 17.4167 17.4166 17.4167H10.8441C10.6547 17.9534 10.3035 18.4182 9.83891 18.7469C9.37429 19.0757 8.81913 19.2522 8.24996 19.2522C7.68079 19.2522 7.12563 19.0757 6.66101 18.7469C6.19639 18.4182 5.84518 17.9534 5.65579 17.4167H4.58329C4.34018 17.4167 4.10702 17.3201 3.93511 17.1482C3.7632 16.9763 3.66663 16.7431 3.66663 16.5C3.66663 16.2569 3.7632 16.0237 3.93511 15.8518C4.10702 15.6799 4.34018 15.5833 4.58329 15.5833H5.65579Z" fill="#35393C"/>
</svg>
