<svg width="31" height="31" viewBox="0 0 31 31" fill="none" xmlns="http://www.w3.org/2000/svg">
<path d="M15.0682 1.07617C17.517 1.07617 19.8656 2.04898 21.5972 3.78058C23.3288 5.51218 24.3016 7.86074 24.3016 10.3096C24.3016 20.5761 28.0466 22.5993 29.0582 22.5993H1.07812C2.11124 22.5993 5.83474 20.5546 5.83474 10.3096C5.83474 7.86074 6.80754 5.51218 8.53915 3.78058C10.2707 2.04898 12.6193 1.07617 15.0682 1.07617V1.07617Z" stroke="#35393C" stroke-width="2.15231" stroke-linecap="round" stroke-linejoin="round"/>
<path d="M11.8359 26.5381C12.022 27.2527 12.4399 27.8854 13.0241 28.337C13.6084 28.7887 14.326 29.0337 15.0644 29.0337C15.8029 29.0337 16.5204 28.7887 17.1047 28.337C17.6889 27.8854 18.1068 27.2527 18.2929 26.5381" stroke="#35393C" stroke-width="2.15231" stroke-linecap="round" stroke-linejoin="round"/>
</svg>
