<svg version="1.1" style="font-family: Roboto; font-size: 12px;" xmlns="http://www.w3.org/2000/svg" width="200" height="200" viewBox="150 0 300 300" aria-hidden="false" aria-label="Interactive chart">
    <g data-z-index="3" aria-hidden="false">
        <g data-z-index="0.1" opacity="1" style="cursor: pointer;" aria-hidden="false" clip-path="none">
            <path fill="#94d13d" d="M 314.97678125477876 36.00000236451814 A 114 114 0 0 1 369.3337218732655 250.2189935461269 L 350.3169192176226 215.14234580498248 A 74.1 74.1 0 0 0 314.98490781560616 75.9000015369368 Z" ></path>
            <path fill="#6f58e9" d="M 369.2334757295639 250.27327714945193 A 114 114 0 0 1 201.39806882798973 159.51846804847523 L 241.15874473819332 156.1870042315089 A 74.1 74.1 0 0 0 350.2517592242165 215.17763014714376 Z" ></path>
            <path fill="#2d99fe" d="M 201.38860716248854 159.40486137700324 A 114 114 0 0 1 244.8897290760845 60.10812099541377 L 269.42832389945494 91.57027864701895 A 74.1 74.1 0 0 0 241.15259465561755 156.11315989505212 Z" ></path>
            <path fill="#2ddac1" d="M 244.97965599523968 60.03805568211064 A 114 114 0 0 1 314.84165628705983 36.000109968173334 L 314.89707658658887 75.90007147931267 A 74.1 74.1 0 0 0 269.4867763969058 91.52473619337192 Z" ></path>
        </g>
        <g data-z-index="0.1" opacity="1"  aria-hidden="true" clip-path="none"></g>
    </g>
</svg>