<svg width="30" height="26" viewBox="0 0 30 26" fill="none" xmlns="http://www.w3.org/2000/svg">
<path d="M8.50004 24.8746L26.7143 24.8746C27.8978 24.8746 28.8572 23.9029 28.8572 22.7042L28.8572 8.59655C28.8572 7.39787 27.8978 6.42614 26.7143 6.42614L8.50004 6.42614C7.31657 6.42614 6.35718 7.39787 6.35718 8.59655L6.35718 22.7042C6.35718 23.9029 7.31657 24.8746 8.50004 24.8746Z" stroke="#4A4D70" stroke-width="2" stroke-linecap="round" stroke-linejoin="round"/>
<path d="M1 19.4485V3.17041C1 2.59478 1.22576 2.04273 1.62763 1.6357C2.02949 1.22867 2.57454 1 3.14286 1H22.4286" stroke="#4A4D70" stroke-width="2" stroke-linecap="round" stroke-linejoin="round"/>
<path d="M21.4524 15.1126C22.1127 15.4987 22.1127 16.4529 21.4524 16.839L16.9334 19.4816C16.2667 19.8715 15.4286 19.3907 15.4286 18.6184L15.4286 13.3332C15.4286 12.5609 16.2667 12.0801 16.9334 12.47L21.4524 15.1126Z" fill="#4A4D70"/>
</svg>
