<svg width="20" height="20" viewBox="0 0 20 20" fill="none" xmlns="http://www.w3.org/2000/svg">
<path d="M3.0526 8.2761C4.18622 8.2761 5.1052 7.35712 5.1052 6.2235C5.1052 5.08988 4.18622 4.1709 3.0526 4.1709C1.91898 4.1709 1 5.08988 1 6.2235C1 7.35712 1.91898 8.2761 3.0526 8.2761Z" stroke="#35393C" stroke-width="1.3684" stroke-linecap="round" stroke-linejoin="round"/>
<path d="M3.05078 8.27637V18.5394" stroke="#35393C" stroke-width="1.3684" stroke-linecap="round" stroke-linejoin="round"/>
<path d="M3.05469 0.750137V4.17114" stroke="#35393C" stroke-width="1.3684" stroke-linecap="round" stroke-linejoin="round"/>
<path d="M16.7362 8.2761C17.8698 8.2761 18.7888 7.35712 18.7888 6.2235C18.7888 5.08988 17.8698 4.1709 16.7362 4.1709C15.6026 4.1709 14.6836 5.08988 14.6836 6.2235C14.6836 7.35712 15.6026 8.2761 16.7362 8.2761Z" stroke="#35393C" stroke-width="1.3684" stroke-linecap="round" stroke-linejoin="round"/>
<path d="M16.7383 4.17114V0.750137" stroke="#35393C" stroke-width="1.3684" stroke-linecap="round" stroke-linejoin="round"/>
<path d="M16.7383 18.5394V8.27637" stroke="#35393C" stroke-width="1.3684" stroke-linecap="round" stroke-linejoin="round"/>
<path d="M9.89635 11.697C11.03 11.697 11.9489 10.778 11.9489 9.6444C11.9489 8.51078 11.03 7.5918 9.89635 7.5918C8.76273 7.5918 7.84375 8.51078 7.84375 9.6444C7.84375 10.778 8.76273 11.697 9.89635 11.697Z" stroke="#35393C" stroke-width="1.3684" stroke-linecap="round" stroke-linejoin="round"/>
<path d="M9.89453 0.75V7.592" stroke="#35393C" stroke-width="1.3684" stroke-linecap="round" stroke-linejoin="round"/>
<path d="M9.89453 11.6973V18.5393" stroke="#35393C" stroke-width="1.3684" stroke-linecap="round" stroke-linejoin="round"/>
</svg>
