<svg width="31" height="31" viewBox="0 0 31 31" fill="none" xmlns="http://www.w3.org/2000/svg">
<g clip-path="url(#clip0_235_1734)">
<path d="M15.5 29.8931C23.449 29.8931 29.8929 23.4492 29.8929 15.5003C29.8929 7.55132 23.449 1.10742 15.5 1.10742C7.55108 1.10742 1.10718 7.55132 1.10718 15.5003C1.10718 23.4492 7.55108 29.8931 15.5 29.8931Z" stroke="#1E224D" stroke-width="2.20779" stroke-linecap="round" stroke-linejoin="round"/>
<path d="M12.1786 12.1789C12.1786 11.5219 12.3734 10.8798 12.7384 10.3336C13.1033 9.78736 13.622 9.36164 14.229 9.11025C14.8359 8.85886 15.5037 8.79309 16.148 8.92124C16.7923 9.0494 17.3841 9.36574 17.8486 9.83025C18.3131 10.2948 18.6295 10.8866 18.7576 11.5309C18.8858 12.1752 18.82 12.843 18.5686 13.4499C18.3172 14.0568 17.8915 14.5756 17.3453 14.9405C16.7991 15.3055 16.1569 15.5003 15.5 15.5003V17.7146" stroke="#1E224D" stroke-width="2.20779" stroke-linecap="round" stroke-linejoin="round"/>
<path d="M15.5 23.2502C15.1943 23.2502 14.9464 23.0024 14.9464 22.6966C14.9464 22.3909 15.1943 22.1431 15.5 22.1431" stroke="#1E224D" stroke-width="2.20779" stroke-linecap="round" stroke-linejoin="round"/>
<path d="M15.5 23.2502C15.8057 23.2502 16.0536 23.0024 16.0536 22.6966C16.0536 22.3909 15.8057 22.1431 15.5 22.1431" stroke="#1E224D" stroke-width="2.20779" stroke-linecap="round" stroke-linejoin="round"/>
</g>
<defs>
<clipPath id="clip0_235_1734">
<rect width="31" height="31" fill="white"/>
</clipPath>
</defs>
</svg>
