<svg width="31" height="31" viewBox="0 0 31 31" fill="none" xmlns="http://www.w3.org/2000/svg">
<g clip-path="url(#clip0_1469_789)">
<path d="M15.5 29.8928C23.449 29.8928 29.8929 23.4489 29.8929 15.5C29.8929 7.55102 23.449 1.10712 15.5 1.10712C7.55108 1.10712 1.10718 7.55102 1.10718 15.5C1.10718 23.4489 7.55108 29.8928 15.5 29.8928Z" stroke="#35393C" stroke-width="2" stroke-linecap="round" stroke-linejoin="round"/>
<path d="M14.3929 19.9285C17.4502 19.9285 19.9286 17.4501 19.9286 14.3928C19.9286 11.3355 17.4502 8.85712 14.3929 8.85712C11.3356 8.85712 8.85718 11.3355 8.85718 14.3928C8.85718 17.4501 11.3356 19.9285 14.3929 19.9285Z" stroke="#35393C" stroke-width="2" stroke-linecap="round" stroke-linejoin="round"/>
<path d="M22.1429 22.1429L18.3122 18.3122" stroke="#35393C" stroke-width="2" stroke-linecap="round" stroke-linejoin="round"/>
</g>
<defs>
<clipPath id="clip0_1469_789">
<rect width="31" height="31" fill="white"/>
</clipPath>
</defs>
</svg>
