<svg width="31" height="31" viewBox="0 0 31 31" fill="none" xmlns="http://www.w3.org/2000/svg">
<g clip-path="url(#clip0_235_1730)">
<path d="M11.5811 4.98218L12.5332 2.52432C12.6938 2.10818 12.9763 1.75023 13.3438 1.49736C13.7112 1.24449 14.1465 1.1085 14.5925 1.10718H16.4082C16.8543 1.1085 17.2895 1.24449 17.657 1.49736C18.0244 1.75023 18.3069 2.10818 18.4675 2.52432L19.4197 4.98218L22.6525 6.84218L25.2654 6.44361C25.7004 6.38455 26.1432 6.45617 26.5375 6.64936C26.9318 6.84256 27.2597 7.1486 27.4797 7.52861L28.3654 9.07861C28.5923 9.46466 28.6969 9.91047 28.6653 10.3572C28.6336 10.8039 28.4673 11.2305 28.1882 11.5807L26.5718 13.64V17.36L28.2325 19.4193C28.5116 19.7696 28.6779 20.1962 28.7096 20.6429C28.7412 21.0896 28.6366 21.5354 28.4097 21.9215L27.5239 23.4715C27.304 23.8515 26.9761 24.1575 26.5818 24.3507C26.1875 24.5439 25.7447 24.6155 25.3097 24.5565L22.6968 24.1579L19.4639 26.0179L18.5118 28.4757C18.3512 28.8919 18.0687 29.2498 17.7013 29.5027C17.3338 29.7556 16.8986 29.8916 16.4525 29.8929H14.5925C14.1465 29.8916 13.7112 29.7556 13.3438 29.5027C12.9763 29.2498 12.6938 28.8919 12.5332 28.4757L11.5811 26.0179L8.34822 24.1579L5.73536 24.5565C5.30029 24.6155 4.85749 24.5439 4.46322 24.3507C4.06895 24.1575 3.74101 23.8515 3.52108 23.4715L2.63536 21.9215C2.4084 21.5354 2.30383 21.0896 2.33546 20.6429C2.36709 20.1962 2.53342 19.7696 2.81251 19.4193L4.42893 17.36V13.64L2.76822 11.5807C2.48913 11.2305 2.3228 10.8039 2.29117 10.3572C2.25955 9.91047 2.36412 9.46466 2.59108 9.07861L3.47679 7.52861C3.69672 7.1486 4.02466 6.84256 4.41893 6.64936C4.8132 6.45617 5.25601 6.38455 5.69108 6.44361L8.30394 6.84218L11.5811 4.98218ZM11.0718 15.5C11.0718 16.3759 11.3315 17.2321 11.8181 17.9604C12.3048 18.6887 12.9964 19.2563 13.8056 19.5915C14.6148 19.9267 15.5053 20.0144 16.3643 19.8435C17.2234 19.6726 18.0125 19.2509 18.6318 18.6315C19.2512 18.0122 19.673 17.2231 19.8438 16.364C20.0147 15.5049 19.927 14.6145 19.5918 13.8053C19.2566 12.9961 18.689 12.3044 17.9607 11.8178C17.2325 11.3312 16.3763 11.0715 15.5004 11.0715C14.3258 11.0715 13.1994 11.538 12.3689 12.3686C11.5384 13.1991 11.0718 14.3255 11.0718 15.5V15.5Z" stroke="#1E224D" stroke-width="2.22374" stroke-linecap="round" stroke-linejoin="round"/>
</g>
<defs>
<clipPath id="clip0_235_1730">
<rect width="31" height="31" fill="white"/>
</clipPath>
</defs>
</svg>
