<svg width="28" height="28" viewBox="0 0 28 28" fill="none" xmlns="http://www.w3.org/2000/svg">
<g clip-path="url(#clip0_3502_9505)">
<g filter="url(#filter0_i_3502_9505)">
<path fill-rule="evenodd" clip-rule="evenodd" d="M14.6981 4.16003C16.1181 1.41003 19.0601 0.704035 20.6041 0.774035C21.7101 0.824035 22.2081 1.80603 22.2081 2.55403V6.06003C23.6081 6.76403 24.5461 7.70403 25.1221 8.87403C25.6881 10.028 25.8601 11.324 25.8901 12.652L27.2801 13.792C27.3946 13.8859 27.4868 14.004 27.5501 14.1379C27.6134 14.2717 27.6462 14.418 27.6461 14.566V19.004C27.6456 19.1492 27.6135 19.2925 27.5521 19.424C26.4561 21.782 24.5141 23.056 22.2081 23.958V25.232C22.2081 25.4947 22.1563 25.7547 22.0558 25.9974C21.9553 26.2401 21.808 26.4605 21.6223 26.6462C21.4366 26.832 21.2161 26.9793 20.9734 27.0798C20.7308 27.1803 20.4707 27.232 20.2081 27.232H16.7081C16.1776 27.232 15.6689 27.0213 15.2938 26.6462C14.9188 26.2712 14.7081 25.7625 14.7081 25.232V24.264H10.4281V25.076C10.4281 25.3387 10.3763 25.5987 10.2758 25.8414C10.1753 26.0841 10.028 26.3045 9.84227 26.4902C9.65655 26.676 9.43608 26.8233 9.19342 26.9238C8.95077 27.0243 8.6907 27.076 8.42806 27.076H4.89406C4.63141 27.076 4.37134 27.0243 4.12869 26.9238C3.88604 26.8233 3.66556 26.676 3.47984 26.4902C3.29413 26.3045 3.14681 26.0841 3.0463 25.8414C2.94579 25.5987 2.89406 25.3387 2.89406 25.076V21.644C2.86956 21.5631 2.84422 21.4824 2.81806 21.402L2.77806 21.276C2.68753 20.9935 2.59953 20.7101 2.51406 20.426L2.50406 20.396C1.82006 18.11 0.546057 13.864 2.37206 9.81403C2.50868 9.51097 2.66226 9.21584 2.83206 8.93003C1.88806 8.18003 0.940058 7.12603 0.416058 5.71803C0.315665 5.41141 0.337721 5.07785 0.477611 4.78711C0.617502 4.49637 0.864391 4.27099 1.16664 4.1581C1.46888 4.04521 1.80307 4.05356 2.0993 4.1814C2.39553 4.30924 2.63086 4.54668 2.75606 4.84403C3.08606 5.72403 3.70806 6.44003 4.41406 6.99403C5.08841 6.38703 5.84774 5.8817 6.66806 5.49403C8.66206 4.54003 11.2881 4.04603 14.6981 4.16203V4.16003ZM14.7501 9.80404C14.7501 10.494 14.1901 11.054 13.5001 11.054H9.79206C9.46054 11.054 9.14259 10.9223 8.90817 10.6879C8.67375 10.4535 8.54206 10.1356 8.54206 9.80404C8.54206 9.47251 8.67375 9.15457 8.90817 8.92015C9.14259 8.68573 9.46054 8.55403 9.79206 8.55403H13.5001C14.1921 8.55403 14.7501 9.11403 14.7501 9.80404ZM19.6681 13.838C19.8756 13.8486 20.0831 13.8169 20.2779 13.7448C20.4728 13.6727 20.6509 13.5618 20.8016 13.4186C20.9522 13.2755 21.0721 13.1033 21.1541 12.9123C21.236 12.7214 21.2783 12.5158 21.2783 12.308C21.2783 12.1003 21.236 11.8947 21.1541 11.7037C21.0721 11.5128 20.9522 11.3405 20.8016 11.1974C20.6509 11.0543 20.4728 10.9433 20.2779 10.8712C20.0831 10.7991 19.8756 10.7674 19.6681 10.778C19.2758 10.7981 18.9062 10.968 18.6357 11.2528C18.3652 11.5375 18.2143 11.9153 18.2143 12.308C18.2143 12.7008 18.3652 13.0786 18.6357 13.3633C18.9062 13.648 19.2758 13.818 19.6681 13.838Z" fill="#35393C"/>
</g>
</g>
<defs>
<filter id="filter0_i_3502_9505" x="0.354004" y="0.769409" width="27.2921" height="26.4626" filterUnits="userSpaceOnUse" color-interpolation-filters="sRGB">
<feFlood flood-opacity="0" result="BackgroundImageFix"/>
<feBlend mode="normal" in="SourceGraphic" in2="BackgroundImageFix" result="shape"/>
<feColorMatrix in="SourceAlpha" type="matrix" values="0 0 0 0 0 0 0 0 0 0 0 0 0 0 0 0 0 0 127 0" result="hardAlpha"/>
<feOffset/>
<feGaussianBlur stdDeviation="1.5"/>
<feComposite in2="hardAlpha" operator="arithmetic" k2="-1" k3="1"/>
<feColorMatrix type="matrix" values="0 0 0 0 0.207843 0 0 0 0 0.223529 0 0 0 0 0.235294 0 0 0 0.23 0"/>
<feBlend mode="normal" in2="shape" result="effect1_innerShadow_3502_9505"/>
</filter>
<clipPath id="clip0_3502_9505">
<rect width="28" height="28" fill="white"/>
</clipPath>
</defs>
</svg>
