<svg width="17" height="20" viewBox="0 0 17 20" fill="none" xmlns="http://www.w3.org/2000/svg">
<path d="M8.64756 13.5656C10.5369 13.5656 12.0686 12.034 12.0686 10.1446C12.0686 8.25527 10.5369 6.72363 8.64756 6.72363C6.7582 6.72363 5.22656 8.25527 5.22656 10.1446C5.22656 12.034 6.7582 13.5656 8.64756 13.5656Z" stroke="#35393C" stroke-width="1.3684" stroke-linecap="round" stroke-linejoin="round"/>
<path d="M8.64453 6.7236V1.25" stroke="#35393C" stroke-width="1.3684" stroke-linecap="round" stroke-linejoin="round"/>
<path d="M12.0664 19.0392V16.9866H14.8032C15.1661 16.9866 15.5142 16.8424 15.7708 16.5858C16.0274 16.3292 16.1716 15.9811 16.1716 15.6182V10.1446C16.1719 8.75717 15.7886 7.39666 15.0641 6.21338C14.3397 5.0301 13.3022 4.07011 12.0664 3.43945" stroke="#35393C" stroke-width="1.3684" stroke-linecap="round" stroke-linejoin="round"/>
<path d="M5.22512 3.43945C3.98879 4.06973 2.95078 5.02956 2.22582 6.21287C1.50087 7.39618 1.11719 8.75689 1.11719 10.1446C1.11719 11.5323 1.50087 12.893 2.22582 14.0763C2.95078 15.2597 3.98879 16.2195 5.22512 16.8498V19.0392" stroke="#35393C" stroke-width="1.3684" stroke-linecap="round" stroke-linejoin="round"/>
</svg>
