<svg width="40" height="41" viewBox="0 0 40 41" fill="none" xmlns="http://www.w3.org/2000/svg">
<path d="M28.374 36.7924H11.9645C5.40071 36.7924 3.75977 35.1514 3.75977 28.5876V25.3057C3.75977 18.742 5.40071 17.101 11.9645 17.101H28.374C34.9378 17.101 36.5787 18.742 36.5787 25.3057V28.5876C36.5787 35.1514 34.9378 36.7924 28.374 36.7924Z" stroke="#1E224D" stroke-width="2" stroke-linecap="round" stroke-linejoin="round"/>
<path d="M10.3242 17.1007V13.8188C10.3242 8.38729 11.9652 3.97314 20.1699 3.97314C27.5542 3.97314 30.0156 7.25504 30.0156 12.1779" stroke="#1E224D" stroke-width="2" stroke-linecap="round" stroke-linejoin="round"/>
<path d="M20.1693 31.0489C22.4349 31.0489 24.2716 29.2122 24.2716 26.9465C24.2716 24.6809 22.4349 22.8442 20.1693 22.8442C17.9036 22.8442 16.0669 24.6809 16.0669 26.9465C16.0669 29.2122 17.9036 31.0489 20.1693 31.0489Z" stroke="#1E224D" stroke-width="2" stroke-linecap="round" stroke-linejoin="round"/>
</svg>
