<svg width="31" height="31" viewBox="0 0 31 31" fill="none" xmlns="http://www.w3.org/2000/svg">
<g clip-path="url(#clip0_1469_795)">
<path d="M15.4999 17.7143C18.5572 17.7143 21.0357 15.2359 21.0357 12.1786C21.0357 9.12131 18.5572 6.64288 15.4999 6.64288C12.4427 6.64288 9.96423 9.12131 9.96423 12.1786C9.96423 15.2359 12.4427 17.7143 15.4999 17.7143Z" stroke="#35393C" stroke-width="2" stroke-linecap="round" stroke-linejoin="round"/>
<path d="M6.04498 26.35C7.03309 24.728 8.42181 23.3876 10.0777 22.4574C11.7335 21.5273 13.6008 21.0387 15.5 21.0387C17.3992 21.0387 19.2665 21.5273 20.9223 22.4574C22.5782 23.3876 23.9669 24.728 24.955 26.35" stroke="#35393C" stroke-width="2" stroke-linecap="round" stroke-linejoin="round"/>
<path d="M15.5 29.8928C23.4489 29.8928 29.8928 23.4489 29.8928 15.5C29.8928 7.55102 23.4489 1.10712 15.5 1.10712C7.55102 1.10712 1.10712 7.55102 1.10712 15.5C1.10712 23.4489 7.55102 29.8928 15.5 29.8928Z" stroke="#35393C" stroke-width="2" stroke-linecap="round" stroke-linejoin="round"/>
</g>
<defs>
<clipPath id="clip0_1469_795">
<rect width="31" height="31" fill="white"/>
</clipPath>
</defs>
</svg>
