<svg width="30" height="31" viewBox="0 0 30 31" fill="none" xmlns="http://www.w3.org/2000/svg">
<g clip-path="url(#clip0_1469_706)">
<path d="M14.9999 9.76685C17.3669 9.76685 19.2857 7.8234 19.2857 5.42603C19.2857 3.02866 17.3669 1.08521 14.9999 1.08521C12.633 1.08521 10.7142 3.02866 10.7142 5.42603C10.7142 7.8234 12.633 9.76685 14.9999 9.76685Z" stroke="#4A4D70" stroke-width="2" stroke-linecap="round" stroke-linejoin="round"/>
<path d="M22.5 17.3633C22.5 15.3486 21.7098 13.4164 20.3033 11.9918C18.8968 10.5672 16.9891 9.76685 15 9.76685C13.0109 9.76685 11.1032 10.5672 9.6967 11.9918C8.29018 13.4164 7.5 15.3486 7.5 17.3633V20.6189H10.7143L11.7857 29.3005H18.2143L19.2857 20.6189H22.5V17.3633Z" stroke="#4A4D70" stroke-width="2" stroke-linecap="round" stroke-linejoin="round"/>
</g>
<defs>
<clipPath id="clip0_1469_706">
<rect width="30" height="30.3858" fill="white"/>
</clipPath>
</defs>
</svg>
