<svg width="32" height="32" viewBox="0 0 32 32" fill="none" xmlns="http://www.w3.org/2000/svg">
<path d="M0 31.012L2.17989 23.0484C0.834741 20.7173 0.127925 18.0749 0.129217 15.3652C0.133093 6.89372 7.02681 0 15.497 0C19.6074 0.00129217 23.4658 1.60229 26.368 4.50708C29.2689 7.41188 30.866 11.2729 30.8647 15.3794C30.8609 23.8521 23.9671 30.7459 15.497 30.7459C12.9256 30.7446 10.3916 30.0998 8.14712 28.8748L0 31.012ZM8.52444 26.0928C10.6901 27.3785 12.7576 28.1486 15.4918 28.1499C22.5315 28.1499 28.2662 22.4204 28.2701 15.3768C28.2726 8.31898 22.5651 2.59726 15.5021 2.59467C8.45724 2.59467 2.72648 8.32415 2.72389 15.3665C2.7226 18.2415 3.56509 20.3943 4.98002 22.6465L3.68914 27.3604L8.52444 26.0928ZM23.2384 19.0324C23.1427 18.8721 22.8869 18.7765 22.5018 18.584C22.1181 18.3914 20.2302 17.4624 19.8774 17.3344C19.526 17.2065 19.2701 17.1419 19.013 17.527C18.7571 17.9107 18.0206 18.7765 17.797 19.0324C17.5735 19.2882 17.3487 19.3205 16.9649 19.128C16.5811 18.9354 15.3432 18.531 13.8766 17.222C12.7356 16.2038 11.9642 14.9465 11.7406 14.5614C11.5171 14.1777 11.7174 13.9696 11.9086 13.7784C12.0818 13.6065 12.2924 13.33 12.4849 13.1052C12.68 12.8829 12.7434 12.7227 12.8726 12.4656C13.0005 12.2097 12.9372 11.9849 12.8403 11.7923C12.7434 11.6011 11.9758 9.71065 11.6567 8.94181C11.3439 8.19364 11.0274 8.29443 10.7922 8.2828L10.0557 8.26988C9.79981 8.26988 9.38373 8.3655 9.03226 8.75057C8.68079 9.13563 7.6884 10.0634 7.6884 11.9539C7.6884 13.8443 9.06456 15.6701 9.2558 15.926C9.44834 16.1818 11.9629 20.0609 15.8149 21.7239C16.731 22.1193 17.4469 22.3558 18.0038 22.5328C18.9238 22.8249 19.7611 22.7835 20.4227 22.6853C21.1606 22.5755 22.6944 21.7562 23.0148 20.8595C23.3353 19.9614 23.3353 19.1926 23.2384 19.0324Z" fill="#35393C"/>
</svg>
